<svg id="Layer_1" data-name="Layer 1" xmlns="http://www.w3.org/2000/svg" viewBox="0 0 48 32"><defs><style>.cls-1{fill:#1d1e26;}.cls-2{fill:#e6b400;}</style></defs><title>favicon</title><rect class="cls-1" width="48" height="32"/><path class="cls-2" d="M45.34,7.49A13.5,13.5,0,0,0,40.12,2a15,15,0,0,0-7.71-2h-4V3.89h3.76A11.29,11.29,0,0,1,38,5.37a10,10,0,0,1,3.9,4.13,13.33,13.33,0,0,1,1.37,6.15,13.27,13.27,0,0,1-1.37,6.15A9.93,9.93,0,0,1,38,25.94a11.39,11.39,0,0,1-5.84,1.48H28.42v3.89h4a15,15,0,0,0,7.71-2,13.5,13.5,0,0,0,5.22-5.52,17.41,17.41,0,0,0,1.86-8.17A17.34,17.34,0,0,0,45.34,7.49Z" transform="translate(0.4 0.35)"/><path class="cls-2" d="M0,31.31,7.42,20.8a10.14,10.14,0,0,1-5.09-3.72A10.4,10.4,0,0,1,.54,10.91,9.84,9.84,0,0,1,4,2.91Q7.51,0,13.6,0H25.81V31.31H21.33V21.78H13.6c-.48,0-1.14,0-2-.09L4.78,31.31ZM13.73,18h7.6V3.89h-7.6q-4.25,0-6.48,1.81A6.3,6.3,0,0,0,5,10.91a6.38,6.38,0,0,0,2.24,5.24Q9.49,18,13.73,18Z" transform="translate(0.4 0.35)"/></svg>